<svg width="351" height="191" viewBox="0 0 351 191" fill="none" xmlns="http://www.w3.org/2000/svg">
<path d="M175.5 8.99658V73.3553" stroke="#3F3D56" stroke-width="2" stroke-miterlimit="10"/>
<path d="M46.7305 73.3553V8.99658H304.269V73.3553" stroke="#3F3D56" stroke-width="2" stroke-miterlimit="10"/>
<path d="M175.5 17.9928C201.309 17.9928 222.231 13.9649 222.231 8.99638C222.231 4.02782 201.309 0 175.5 0C149.692 0 128.77 4.02782 128.77 8.99638C128.77 13.9649 149.692 17.9928 175.5 17.9928Z" fill="#F2F2F2"/>
<path d="M46.7308 191C72.5395 191 93.4615 189.606 93.4615 187.886C93.4615 186.166 72.5395 184.772 46.7308 184.772C20.9221 184.772 0 186.166 0 187.886C0 189.606 20.9221 191 46.7308 191Z" fill="#3F3D56"/>
<path d="M304.269 191C330.078 191 351 189.606 351 187.886C351 186.166 330.078 184.772 304.269 184.772C278.46 184.772 257.538 186.166 257.538 187.886C257.538 189.606 278.46 191 304.269 191Z" fill="#3F3D56"/>
<path d="M175.5 191C201.309 191 222.231 189.606 222.231 187.886C222.231 186.166 201.309 184.772 175.5 184.772C149.692 184.772 128.77 186.166 128.77 187.886C128.77 189.606 149.692 191 175.5 191Z" fill="#3F3D56"/>
<path d="M175.5 14.1866C178.368 14.1866 180.692 11.8628 180.692 8.99637C180.692 6.12989 178.368 3.80615 175.5 3.80615C172.632 3.80615 170.308 6.12989 170.308 8.99637C170.308 11.8628 172.632 14.1866 175.5 14.1866Z" fill="#00BFA6"/>
<path d="M44.3081 177.505C59.4109 177.505 71.6542 165.267 71.6542 150.17C71.6542 135.073 59.4109 122.835 44.3081 122.835C29.2052 122.835 16.9619 135.073 16.9619 150.17C16.9619 165.267 29.2052 177.505 44.3081 177.505Z" fill="#2F2E41"/>
<path d="M40.1534 171.623H31.8457V186.502H40.1534V171.623Z" fill="#2F2E41"/>
<path d="M56.7696 171.623H48.4619V186.502H56.7696V171.623Z" fill="#2F2E41"/>
<path d="M38.7688 189.27C42.5923 189.27 45.6919 188.108 45.6919 186.675C45.6919 185.241 42.5923 184.08 38.7688 184.08C34.9453 184.08 31.8457 185.241 31.8457 186.675C31.8457 188.108 34.9453 189.27 38.7688 189.27Z" fill="#2F2E41"/>
<path d="M55.385 188.924C59.2085 188.924 62.3081 187.762 62.3081 186.329C62.3081 184.896 59.2085 183.734 55.385 183.734C51.5615 183.734 48.4619 184.896 48.4619 186.329C48.4619 187.762 51.5615 188.924 55.385 188.924Z" fill="#2F2E41"/>
<path d="M45.0005 152.592C50.1622 152.592 54.3466 148.41 54.3466 143.25C54.3466 138.09 50.1622 133.908 45.0005 133.908C39.8387 133.908 35.6543 138.09 35.6543 143.25C35.6543 148.41 39.8387 152.592 45.0005 152.592Z" fill="white"/>
<path d="M45.0002 146.364C46.7207 146.364 48.1155 144.97 48.1155 143.25C48.1155 141.53 46.7207 140.136 45.0002 140.136C43.2796 140.136 41.8848 141.53 41.8848 143.25C41.8848 144.97 43.2796 146.364 45.0002 146.364Z" fill="#3F3D56"/>
<path d="M17.7812 124.75C15.5732 114.865 22.6315 104.877 33.5465 102.44C44.4614 100.004 55.0998 106.042 57.3079 115.927C59.5159 125.812 52.2822 129.458 41.3672 131.894C30.4522 134.33 19.9893 134.634 17.7812 124.75Z" fill="#00BFA6"/>
<path d="M175.5 177.505C190.603 177.505 202.847 165.267 202.847 150.17C202.847 135.073 190.603 122.835 175.5 122.835C160.398 122.835 148.154 135.073 148.154 150.17C148.154 165.267 160.398 177.505 175.5 177.505Z" fill="#2F2E41"/>
<path d="M171.346 171.623H163.038V186.502H171.346V171.623Z" fill="#2F2E41"/>
<path d="M187.962 171.623H179.654V186.502H187.962V171.623Z" fill="#2F2E41"/>
<path d="M169.961 189.27C173.785 189.27 176.884 188.108 176.884 186.675C176.884 185.241 173.785 184.08 169.961 184.08C166.138 184.08 163.038 185.241 163.038 186.675C163.038 188.108 166.138 189.27 169.961 189.27Z" fill="#2F2E41"/>
<path d="M186.577 188.924C190.401 188.924 193.5 187.762 193.5 186.329C193.5 184.896 190.401 183.734 186.577 183.734C182.754 183.734 179.654 184.896 179.654 186.329C179.654 187.762 182.754 188.924 186.577 188.924Z" fill="#2F2E41"/>
<path d="M176.192 152.592C181.354 152.592 185.538 148.41 185.538 143.25C185.538 138.09 181.354 133.908 176.192 133.908C171.03 133.908 166.846 138.09 166.846 143.25C166.846 148.41 171.03 152.592 176.192 152.592Z" fill="white"/>
<path d="M176.193 146.364C177.913 146.364 179.308 144.97 179.308 143.25C179.308 141.53 177.913 140.136 176.193 140.136C174.472 140.136 173.077 141.53 173.077 143.25C173.077 144.97 174.472 146.364 176.193 146.364Z" fill="#3F3D56"/>
<path d="M148.974 124.749C146.766 114.864 153.824 104.876 164.739 102.44C175.654 100.004 176.754 106.03 178.962 115.915C181.17 125.799 183.475 129.457 172.56 131.894C161.645 134.33 151.182 134.634 148.974 124.749Z" fill="#FC6681"/>
<path d="M304.269 177.505C319.372 177.505 331.615 165.267 331.615 150.17C331.615 135.073 319.372 122.835 304.269 122.835C289.166 122.835 276.923 135.073 276.923 150.17C276.923 165.267 289.166 177.505 304.269 177.505Z" fill="#2F2E41"/>
<path d="M300.115 171.623H291.808V186.502H300.115V171.623Z" fill="#2F2E41"/>
<path d="M316.731 171.623H308.423V186.502H316.731V171.623Z" fill="#2F2E41"/>
<path d="M298.731 189.27C302.554 189.27 305.654 188.108 305.654 186.675C305.654 185.241 302.554 184.08 298.731 184.08C294.907 184.08 291.808 185.241 291.808 186.675C291.808 188.108 294.907 189.27 298.731 189.27Z" fill="#2F2E41"/>
<path d="M315.346 188.924C319.169 188.924 322.269 187.762 322.269 186.329C322.269 184.896 319.169 183.734 315.346 183.734C311.522 183.734 308.423 184.896 308.423 186.329C308.423 187.762 311.522 188.924 315.346 188.924Z" fill="#2F2E41"/>
<path d="M304.961 152.592C310.123 152.592 314.308 148.41 314.308 143.25C314.308 138.09 310.123 133.908 304.961 133.908C299.8 133.908 295.615 138.09 295.615 143.25C295.615 148.41 299.8 152.592 304.961 152.592Z" fill="white"/>
<path d="M304.961 146.364C306.682 146.364 308.076 144.97 308.076 143.25C308.076 141.53 306.682 140.136 304.961 140.136C303.241 140.136 301.846 141.53 301.846 143.25C301.846 144.97 303.241 146.364 304.961 146.364Z" fill="#3F3D56"/>
<path d="M277.742 124.75C275.534 114.865 282.592 104.877 293.507 102.44C304.422 100.004 315.061 106.042 317.269 115.927C319.477 125.812 312.243 129.458 301.328 131.894C290.413 134.33 279.95 134.634 277.742 124.75Z" fill="#00BFA6"/>
<path d="M188.5 115.927C186.294 106.052 175.675 100.017 164.772 102.433L172.379 131.933C172.439 131.919 172.499 131.907 172.559 131.894C183.474 129.457 190.708 125.812 188.5 115.927Z" fill="#00BFA6"/>
<path d="M170.308 8.99637C170.308 10.3729 170.855 11.6931 171.828 12.6664C172.802 13.6398 174.123 14.1866 175.5 14.1866V3.80615C174.123 3.80615 172.802 4.35298 171.828 5.32633C170.855 6.29969 170.308 7.61984 170.308 8.99637Z" fill="#FC6681"/>
<path d="M136.731 123.1C136.731 143.335 124.696 150.4 109.851 150.4C95.0061 150.4 82.9717 143.335 82.9717 123.1C82.9717 102.864 109.851 77.1221 109.851 77.1221C109.851 77.1221 136.731 102.864 136.731 123.1Z" fill="#F2F2F2"/>
<path d="M108.872 147.305L109.147 130.37L120.604 109.419L109.19 127.714L109.314 120.099L117.21 104.941L109.347 118.084L109.569 104.388L118.024 92.3209L109.604 102.235L109.743 77.1226L108.869 110.367L108.941 108.995L100.345 95.8426L108.804 111.628L108.003 126.923L107.979 126.518L98.0684 112.676L107.949 127.952L107.849 129.865L107.831 129.893L107.839 130.05L105.807 168.856H108.522L108.848 148.812L118.703 133.574L108.872 147.305Z" fill="#3F3D56"/>
<path d="M106.961 171.623C112.123 171.623 116.308 170.384 116.308 168.855C116.308 167.326 112.123 166.087 106.961 166.087C101.8 166.087 97.6152 167.326 97.6152 168.855C97.6152 170.384 101.8 171.623 106.961 171.623Z" fill="#3F3D56"/>
<path d="M266.884 123.1C266.884 143.335 254.85 150.4 240.005 150.4C225.159 150.4 213.125 143.335 213.125 123.1C213.125 102.864 240.005 77.1221 240.005 77.1221C240.005 77.1221 266.884 102.864 266.884 123.1Z" fill="#F2F2F2"/>
<path d="M239.026 147.305L239.301 130.37L250.758 109.419L239.345 127.714L239.468 120.099L247.364 104.941L239.501 118.084L239.724 104.388L248.179 92.3209L239.759 102.235L239.898 77.1226L239.024 110.367L239.096 108.995L230.499 95.8426L238.958 111.628L238.157 126.923L238.133 126.518L228.223 112.676L238.103 127.952L238.003 129.865L237.985 129.893L237.993 130.05L235.961 168.856H238.676L239.002 148.812L248.858 133.574L239.026 147.305Z" fill="#3F3D56"/>
<path d="M237.461 171.623C242.623 171.623 246.808 170.384 246.808 168.855C246.808 167.326 242.623 166.087 237.461 166.087C232.3 166.087 228.115 167.326 228.115 168.855C228.115 170.384 232.3 171.623 237.461 171.623Z" fill="#3F3D56"/>
</svg>
