<svg width="348" height="236" viewBox="0 0 348 236" fill="none" xmlns="http://www.w3.org/2000/svg">
<g clip-path="url(#clip0)">
<path opacity="0.4" d="M235.81 146.624C250.167 146.624 261.805 134.973 261.805 120.601C261.805 106.229 250.167 94.5781 235.81 94.5781C221.454 94.5781 209.815 106.229 209.815 120.601C209.815 134.973 221.454 146.624 235.81 146.624Z" fill="#00BFA6"/>
<path d="M236.404 156.609H91.4453V195.939H236.404V156.609Z" fill="#3F3D56"/>
<path d="M227.119 59.1664L221.331 61.9088L226.454 58.0742C225.621 56.7732 224.686 55.5411 223.657 54.3896L198.555 60.6356L221.229 51.9768C220.193 51.0616 219.093 50.222 217.937 49.4644L179.686 55.6321C175.625 60.7161 173.411 67.0312 173.408 73.5409H230.985C230.983 68.4923 229.649 63.5338 227.119 59.1664Z" fill="#F2F2F2"/>
<path d="M231.704 17.019C208.696 5.78504 183.427 -0.0361166 157.828 0.000168596C105.728 0.000168596 59.1477 23.6499 28.209 60.8087C81.1887 49.1879 173.43 29.0715 231.704 17.019Z" fill="#F2F2F2"/>
<path d="M345.461 235.269H0V235.947H345.461V235.269Z" fill="#2F2E41"/>
<path d="M201.812 73.5411L182.214 44.3994C182.214 44.3994 211.893 54.7719 208.525 73.5411H201.812Z" fill="#3F3D56"/>
<path d="M202.581 73.5411L222.179 44.3994C222.179 44.3994 192.5 54.7719 195.868 73.5411H202.581Z" fill="#00BFA6"/>
<path d="M236.573 235.947H91.2764V18.9536H236.573V235.947ZM91.9537 235.269H235.896V19.6317H91.9537V235.269Z" fill="#2F2E41"/>
<path d="M236.404 24.1011H91.7842V24.7792H236.404V24.1011Z" fill="#2F2E41"/>
<path d="M95.51 23.0225C96.2582 23.0225 96.8648 22.4153 96.8648 21.6663C96.8648 20.9173 96.2582 20.3101 95.51 20.3101C94.7618 20.3101 94.1553 20.9173 94.1553 21.6663C94.1553 22.4153 94.7618 23.0225 95.51 23.0225Z" fill="#00BFA6"/>
<path d="M99.2356 23.0225C99.9838 23.0225 100.59 22.4153 100.59 21.6663C100.59 20.9173 99.9838 20.3101 99.2356 20.3101C98.4874 20.3101 97.8809 20.9173 97.8809 21.6663C97.8809 22.4153 98.4874 23.0225 99.2356 23.0225Z" fill="#00BFA6"/>
<path d="M102.961 23.0225C103.709 23.0225 104.316 22.4153 104.316 21.6663C104.316 20.9173 103.709 20.3101 102.961 20.3101C102.213 20.3101 101.606 20.9173 101.606 21.6663C101.606 22.4153 102.213 23.0225 102.961 23.0225Z" fill="#00BFA6"/>
<path d="M102.961 28.7861H96.8643V32.1767H102.961V28.7861Z" fill="#00BFA6"/>
<path d="M126.669 55.5713H96.8643V58.9618H126.669V55.5713Z" fill="#00BFA6"/>
<path d="M202.874 32.1768L232.679 32.1768V28.7862L202.874 28.7862V32.1768Z" fill="#F2F2F2"/>
<path d="M146.99 61.335H96.8643V63.3693H146.99V61.335Z" fill="#F2F2F2"/>
<path d="M144.281 65.7427H96.8643V67.777H144.281V65.7427Z" fill="#F2F2F2"/>
<path d="M131.41 70.1504H96.8643V72.1847H131.41V70.1504Z" fill="#F2F2F2"/>
<path d="M128.024 130.502H108.38V132.536H128.024V130.502Z" fill="#F2F2F2"/>
<path d="M126.962 134.909H108.38V136.943H126.962V134.909Z" fill="#F2F2F2"/>
<path d="M121.918 139.317H108.38V141.351H121.918V139.317Z" fill="#F2F2F2"/>
<path d="M173.746 130.502H154.103V132.536H173.746V130.502Z" fill="#F2F2F2"/>
<path d="M172.685 134.909H154.103V136.943H172.685V134.909Z" fill="#F2F2F2"/>
<path d="M167.641 139.317H154.103V141.351H167.641V139.317Z" fill="#F2F2F2"/>
<path d="M221.163 130.502H201.52V132.536H221.163V130.502Z" fill="#F2F2F2"/>
<path d="M220.102 134.909H201.52V136.943H220.102V134.909Z" fill="#F2F2F2"/>
<path d="M215.058 139.317H201.52V141.351H215.058V139.317Z" fill="#F2F2F2"/>
<path d="M168.667 207.466H138.862V210.857H168.667V207.466Z" fill="#00BFA6"/>
<path d="M188.988 213.23H138.862V215.265H188.988V213.23Z" fill="#F2F2F2"/>
<path d="M186.279 217.638H138.862V219.672H186.279V217.638Z" fill="#F2F2F2"/>
<path d="M173.408 222.046H138.862V224.08H173.408V222.046Z" fill="#F2F2F2"/>
<path opacity="0.3" d="M223.703 92.189H105.84V92.8671H223.703V92.189Z" fill="#00BFA6"/>
<path opacity="0.3" d="M130.734 104.056H105.671V126.433H130.734V104.056Z" fill="#00BFA6"/>
<path d="M176.456 104.056H151.394V126.433H176.456V104.056Z" fill="#3F3D56"/>
<path d="M223.872 104.056H198.81V126.433H223.872V104.056Z" fill="#3F3D56"/>
<path d="M160.659 126.339L160.328 126.332C160.335 125.966 160.542 117.327 163.939 114.939L164.129 115.21C160.869 117.501 160.66 126.251 160.659 126.339Z" fill="#00BFA6"/>
<path d="M165.687 114.83C166.601 114.83 167.341 114.089 167.341 113.175C167.341 112.261 166.601 111.52 165.687 111.52C164.774 111.52 164.034 112.261 164.034 113.175C164.034 114.089 164.774 114.83 165.687 114.83Z" fill="#00BFA6"/>
<path d="M165.354 119.018C164.494 119.289 163.578 119.328 162.698 119.133C163.257 118.421 164.01 117.886 164.865 117.592C165.721 117.298 166.643 117.258 167.521 117.477C166.946 118.172 166.199 118.703 165.354 119.018Z" fill="#00BFA6"/>
<path d="M208.076 126.339L207.745 126.332C207.752 125.966 207.959 117.327 211.356 114.939L211.546 115.21C208.286 117.501 208.077 126.251 208.076 126.339Z" fill="#00BFA6"/>
<path d="M213.104 114.83C214.017 114.83 214.758 114.089 214.758 113.175C214.758 112.261 214.017 111.52 213.104 111.52C212.191 111.52 211.451 112.261 211.451 113.175C211.451 114.089 212.191 114.83 213.104 114.83Z" fill="#00BFA6"/>
<path d="M212.77 119.018C211.91 119.289 210.994 119.328 210.114 119.133C210.673 118.421 211.426 117.886 212.281 117.592C213.137 117.298 214.059 117.258 214.937 117.477C214.362 118.172 213.615 118.703 212.77 119.018Z" fill="#00BFA6"/>
<path d="M126.669 169.154H96.8643V172.544H126.669V169.154Z" fill="#00BFA6"/>
<path d="M146.99 174.917H96.8643V176.952H146.99V174.917Z" fill="#F2F2F2"/>
<path d="M144.281 179.325H96.8643V181.359H144.281V179.325Z" fill="#F2F2F2"/>
<path d="M131.41 183.733H96.8643V185.767H131.41V183.733Z" fill="#F2F2F2"/>
<path opacity="0.4" d="M207.193 184.427C213.038 184.427 217.776 179.684 217.776 173.832C217.776 167.981 213.038 163.238 207.193 163.238C201.348 163.238 196.609 167.981 196.609 173.832C196.609 179.684 201.348 184.427 207.193 184.427Z" fill="#00BFA6"/>
<path opacity="0.4" d="M187.606 186.325C191.706 186.325 195.03 182.997 195.03 178.893C195.03 174.788 191.706 171.46 187.606 171.46C183.506 171.46 180.182 174.788 180.182 178.893C180.182 182.997 183.506 186.325 187.606 186.325Z" fill="#00BFA6"/>
<path d="M56.7299 224.249C71.507 224.249 83.4862 212.257 83.4862 197.464C83.4862 182.671 71.507 170.679 56.7299 170.679C41.9528 170.679 29.9736 182.671 29.9736 197.464C29.9736 212.257 41.9528 224.249 56.7299 224.249Z" fill="#2F2E41"/>
<path d="M52.6656 218.486H44.5371V233.065H52.6656V218.486Z" fill="#2F2E41"/>
<path d="M68.9224 218.486H60.7939V233.065H68.9224V218.486Z" fill="#2F2E41"/>
<path d="M51.3109 235.777C55.0519 235.777 58.0846 234.639 58.0846 233.234C58.0846 231.83 55.0519 230.691 51.3109 230.691C47.5698 230.691 44.5371 231.83 44.5371 233.234C44.5371 234.639 47.5698 235.777 51.3109 235.777Z" fill="#2F2E41"/>
<path d="M67.5677 235.438C71.3087 235.438 74.3414 234.3 74.3414 232.895C74.3414 231.491 71.3087 230.353 67.5677 230.353C63.8267 230.353 60.7939 231.491 60.7939 232.895C60.7939 234.3 63.8267 235.438 67.5677 235.438Z" fill="#2F2E41"/>
<path d="M57.4073 199.838C62.4577 199.838 66.5518 195.739 66.5518 190.683C66.5518 185.627 62.4577 181.529 57.4073 181.529C52.3569 181.529 48.2627 185.627 48.2627 190.683C48.2627 195.739 52.3569 199.838 57.4073 199.838Z" fill="white"/>
<path d="M57.4076 189.666C59.091 189.666 60.4558 188.3 60.4558 186.615C60.4558 184.93 59.091 183.563 57.4076 183.563C55.7241 183.563 54.3594 184.93 54.3594 186.615C54.3594 188.3 55.7241 189.666 57.4076 189.666Z" fill="#3F3D56"/>
<path d="M30.7754 172.555C28.615 162.869 35.5211 153.082 46.2006 150.695C56.8802 148.308 67.289 154.225 69.4495 163.91C71.6099 173.596 64.5322 177.169 53.8527 179.556C43.1731 181.943 32.9359 182.241 30.7754 172.555Z" fill="#00BFA6"/>
<path d="M80.7843 169.598C83.8978 162.89 84.7167 156.659 82.6132 155.681C80.5097 154.702 76.2804 159.347 73.1669 166.054C70.0533 172.762 69.2345 178.993 71.338 179.971C73.4415 180.95 77.6707 176.305 80.7843 169.598Z" fill="#2F2E41"/>
<path d="M34.1247 187.8C36.1747 186.714 35.0345 180.534 31.5779 173.997C28.1214 167.459 23.6574 163.041 21.6074 164.127C19.5574 165.213 20.6976 171.393 24.1542 177.93C27.6107 184.468 32.0747 188.886 34.1247 187.8Z" fill="#2F2E41"/>
<path d="M282.536 190.041C284.7 189.206 284.3 182.934 281.643 176.033C278.986 169.131 275.077 164.213 272.913 165.048C270.749 165.884 271.148 172.155 273.806 179.057C276.463 185.959 280.371 190.876 282.536 190.041Z" fill="#2F2E41"/>
<path d="M302.512 224.488C317.289 224.488 329.268 212.496 329.268 197.703C329.268 182.91 317.289 170.917 302.512 170.917C287.735 170.917 275.756 182.91 275.756 197.703C275.756 212.496 287.735 224.488 302.512 224.488Z" fill="#2F2E41"/>
<path d="M306.675 233.29L314.804 233.267L314.763 218.688L306.634 218.711L306.675 233.29Z" fill="#2F2E41"/>
<path d="M290.419 233.337L298.548 233.314L298.507 218.735L290.379 218.758L290.419 233.337Z" fill="#2F2E41"/>
<path d="M308.038 236C311.779 235.989 314.808 234.842 314.805 233.438C314.801 232.034 311.765 230.904 308.024 230.914C304.283 230.925 301.253 232.072 301.257 233.476C301.261 234.88 304.297 236.01 308.038 236Z" fill="#2F2E41"/>
<path d="M291.78 235.706C295.521 235.696 298.551 234.549 298.547 233.145C298.543 231.74 295.507 230.61 291.766 230.621C288.025 230.631 284.995 231.778 284.999 233.183C285.003 234.587 288.039 235.717 291.78 235.706Z" fill="#2F2E41"/>
<path d="M301.815 200.078C306.866 200.078 310.96 195.979 310.96 190.923C310.96 185.868 306.866 181.769 301.815 181.769C296.765 181.769 292.671 185.868 292.671 190.923C292.671 195.979 296.765 200.078 301.815 200.078Z" fill="white"/>
<path d="M301.816 193.975C303.499 193.975 304.864 192.609 304.864 190.924C304.864 189.238 303.499 187.872 301.816 187.872C300.132 187.872 298.768 189.238 298.768 190.924C298.768 192.609 300.132 193.975 301.816 193.975Z" fill="#3F3D56"/>
<path d="M328.397 172.72C330.53 163.029 323.597 153.261 312.91 150.903C302.224 148.546 291.832 154.492 289.699 164.184C287.565 173.876 294.653 177.428 305.339 179.786C316.025 182.143 326.263 182.412 328.397 172.72Z" fill="#00BFA6"/>
<path d="M334.425 188.983C341.091 185.795 345.685 181.512 344.686 179.417C343.686 177.321 337.471 178.208 330.804 181.396C324.137 184.584 319.543 188.867 320.543 190.963C321.543 193.058 327.758 192.172 334.425 188.983Z" fill="#2F2E41"/>
<path d="M315.682 207.328C315.69 209.95 308.961 215.145 301.479 215.166C293.997 215.187 286.961 207.827 286.954 205.205C286.947 202.583 293.971 205.694 301.453 205.673C308.935 205.652 315.675 204.707 315.682 207.328Z" fill="white"/>
<path opacity="0.4" d="M310.661 196.294C331.283 196.294 348.001 179.558 348.001 158.914C348.001 138.27 331.283 121.534 310.661 121.534C290.039 121.534 273.321 138.27 273.321 158.914C273.321 179.558 290.039 196.294 310.661 196.294Z" fill="#00BFA6"/>
<path d="M64.4878 144.975C79.2649 144.975 91.2441 132.983 91.2441 118.19C91.2441 103.397 79.2649 91.4048 64.4878 91.4048C49.7107 91.4048 37.7314 103.397 37.7314 118.19C37.7314 132.983 49.7107 144.975 64.4878 144.975Z" fill="#2F2E41"/>
<path d="M56.7485 138.15L48.75 136.701L46.1557 151.047L54.1542 152.496L56.7485 138.15Z" fill="#2F2E41"/>
<path d="M72.7446 141.05L64.7461 139.6L62.1518 153.946L70.1503 155.396L72.7446 141.05Z" fill="#2F2E41"/>
<path d="M72.7152 160.857C73.6218 159.785 72.0425 156.954 69.1877 154.534C66.3329 152.113 63.2836 151.02 62.377 152.092C61.4703 153.163 63.0496 155.994 65.9045 158.415C68.7593 160.835 71.8085 161.928 72.7152 160.857Z" fill="#2F2E41"/>
<path d="M57.0521 158.018C57.9587 156.946 56.3794 154.115 53.5246 151.695C50.6698 149.274 47.6205 148.181 46.7139 149.253C45.8072 150.325 47.3866 153.155 50.2414 155.576C53.0962 157.996 56.1455 159.089 57.0521 158.018Z" fill="#2F2E41"/>
<path d="M66.3614 120.793C71.4118 120.793 75.5059 116.694 75.5059 111.638C75.5059 106.582 71.4118 102.484 66.3614 102.484C61.311 102.484 57.2168 106.582 57.2168 111.638C57.2168 116.694 61.311 120.793 66.3614 120.793Z" fill="white"/>
<path d="M70.1195 111.409C71.8029 111.409 73.1677 110.042 73.1677 108.357C73.1677 106.672 71.8029 105.306 70.1195 105.306C68.436 105.306 67.0713 106.672 67.0713 108.357C67.0713 110.042 68.436 111.409 70.1195 111.409Z" fill="#3F3D56"/>
<path d="M43.3808 89.0508C42.9785 79.1345 51.5157 70.7354 62.4492 70.2908C73.3827 69.8462 82.5723 77.5245 82.9746 87.4407C83.377 97.357 75.7768 99.61 64.8433 100.055C53.9098 100.499 43.7832 98.967 43.3808 89.0508Z" fill="#FF6584"/>
<path d="M90.1315 117.409C97.3333 115.756 102.751 112.582 102.233 110.318C101.715 108.055 95.4566 107.56 88.2548 109.212C81.053 110.865 75.6349 114.039 76.1532 116.303C76.6714 118.566 82.9297 119.061 90.1315 117.409Z" fill="#2F2E41"/>
<path d="M37.61 126.152C44.8118 124.5 50.2299 121.325 49.7116 119.062C49.1934 116.799 42.9351 116.304 35.7333 117.956C28.5316 119.609 23.1135 122.783 23.6317 125.046C24.1499 127.31 30.4082 127.805 37.61 126.152Z" fill="#2F2E41"/>
<path d="M57.1385 128.746C56.8505 130.339 57.2063 131.981 58.1277 133.311C59.049 134.641 60.4604 135.55 62.0514 135.838C63.6424 136.127 65.2827 135.771 66.6114 134.848C67.94 133.926 68.8483 132.513 69.1363 130.92C69.736 127.604 67.1745 126.43 63.8614 125.83C60.5483 125.229 57.7383 125.429 57.1385 128.746Z" fill="white"/>
<path d="M127.488 96.4322L103.48 89.2271L97.0612 110.662L121.068 117.867L127.488 96.4322Z" fill="#3F3D56"/>
<path d="M105.964 113.235L105.649 113.134C105.761 112.785 108.438 104.569 112.377 103.259L112.481 103.573C108.701 104.831 105.991 113.152 105.964 113.235Z" fill="#00BFA6"/>
<path d="M114.558 103.727C115.471 103.727 116.211 102.986 116.211 102.072C116.211 101.157 115.471 100.417 114.558 100.417C113.644 100.417 112.904 101.157 112.904 102.072C112.904 102.986 113.644 103.727 114.558 103.727Z" fill="#00BFA6"/>
<path d="M112.561 107.573C111.66 107.585 110.771 107.359 109.984 106.919C110.724 106.398 111.598 106.102 112.502 106.066C113.406 106.031 114.301 106.258 115.079 106.72C114.329 107.22 113.461 107.514 112.561 107.573Z" fill="#00BFA6"/>
</g>
<defs>
<clipPath id="clip0">
<rect width="348" height="236" fill="white"/>
</clipPath>
</defs>
</svg>
