<svg width="322" height="279" viewBox="0 0 322 279" fill="none" xmlns="http://www.w3.org/2000/svg">
<g clip-path="url(#clip0)">
<path d="M153.721 279C238.618 279 307.441 261.155 307.441 239.143C307.441 217.13 238.618 199.286 153.721 199.286C68.8231 199.286 0 217.13 0 239.143C0 261.155 68.8231 279 153.721 279Z" fill="#F2F2F2"/>
<path d="M212.213 100.487C226.682 100.487 238.412 88.7472 238.412 74.2649C238.412 59.7827 226.682 48.0425 212.213 48.0425C197.743 48.0425 186.014 59.7827 186.014 74.2649C186.014 88.7472 197.743 100.487 212.213 100.487Z" fill="#00BFA6"/>
<path d="M167.681 162.202C182.15 162.202 193.88 150.462 193.88 135.979C193.88 121.497 182.15 109.757 167.681 109.757C153.211 109.757 141.481 121.497 141.481 135.979C141.481 150.462 153.211 162.202 167.681 162.202Z" fill="#FC6681"/>
<path d="M167.852 270.857C252.749 270.857 321.572 253.012 321.572 231C321.572 208.987 252.749 191.143 167.852 191.143C82.954 191.143 14.1309 208.987 14.1309 231C14.1309 253.012 82.954 270.857 167.852 270.857Z" stroke="#3F3D56" stroke-width="2" stroke-miterlimit="10"/>
<path d="M53.4404 217.929C72.1226 217.929 87.2675 202.77 87.2675 184.072C87.2675 165.373 72.1226 150.214 53.4404 150.214C34.7582 150.214 19.6133 165.373 19.6133 184.072C19.6133 202.77 34.7582 217.929 53.4404 217.929Z" fill="#2F2E41"/>
<path d="M48.302 210.643H38.0254V229.072H48.302V210.643Z" fill="#2F2E41"/>
<path d="M68.8547 210.643H58.5781V229.072H68.8547V210.643Z" fill="#2F2E41"/>
<path d="M46.5892 232.5C51.3189 232.5 55.1531 231.061 55.1531 229.286C55.1531 227.51 51.3189 226.071 46.5892 226.071C41.8595 226.071 38.0254 227.51 38.0254 229.286C38.0254 231.061 41.8595 232.5 46.5892 232.5Z" fill="#2F2E41"/>
<path d="M67.142 232.071C71.8716 232.071 75.7058 230.632 75.7058 228.857C75.7058 227.082 71.8716 225.643 67.142 225.643C62.4123 225.643 58.5781 227.082 58.5781 228.857C58.5781 230.632 62.4123 232.071 67.142 232.071Z" fill="#2F2E41"/>
<path d="M54.2965 187.072C60.6816 187.072 65.8577 181.891 65.8577 175.5C65.8577 169.109 60.6816 163.929 54.2965 163.929C47.9115 163.929 42.7354 169.109 42.7354 175.5C42.7354 181.891 47.9115 187.072 54.2965 187.072Z" fill="white"/>
<path d="M54.2961 179.357C56.4245 179.357 58.1498 177.63 58.1498 175.5C58.1498 173.37 56.4245 171.643 54.2961 171.643C52.1678 171.643 50.4424 173.37 50.4424 175.5C50.4424 177.63 52.1678 179.357 54.2961 179.357Z" fill="#3F3D56"/>
<path d="M20.627 152.585C17.8957 140.342 26.6268 127.971 40.1286 124.953C53.6304 121.936 66.79 129.415 69.5214 141.658C72.2528 153.901 63.3046 158.417 49.8028 161.434C36.3011 164.452 23.3584 164.829 20.627 152.585Z" fill="#00BFA6"/>
<path d="M85.1672 177.318C93.7548 173.64 99.781 168.47 98.6271 165.772C97.4733 163.073 89.5763 163.868 80.9887 167.547C72.4011 171.226 66.3748 176.395 67.5287 179.094C68.6826 181.792 76.5796 180.997 85.1672 177.318Z" fill="#2F2E41"/>
<path d="M21.7941 200.033C30.3817 196.354 36.4079 191.184 35.2541 188.486C34.1002 185.788 26.2032 186.583 17.6156 190.261C9.02803 193.94 3.0018 199.11 4.15566 201.808C5.30952 204.506 13.2065 203.712 21.7941 200.033Z" fill="#2F2E41"/>
<path d="M73.1375 193.929C73.1375 197.242 64.6128 203.786 55.1535 203.786C45.6941 203.786 36.7412 197.671 36.7412 194.357C36.7412 191.043 45.6941 191.786 55.1535 191.786C64.6128 191.786 73.1375 190.615 73.1375 193.929Z" fill="white"/>
<path d="M117.583 211.487C132.052 211.487 143.782 199.747 143.782 185.265C143.782 170.783 132.052 159.042 117.583 159.042C103.114 159.042 91.3838 170.783 91.3838 185.265C91.3838 199.747 103.114 211.487 117.583 211.487Z" fill="#00BFA6"/>
<path d="M117.56 232.687V185.121" stroke="#3F3D56" stroke-width="2" stroke-miterlimit="10"/>
<path d="M117.559 191.847C121.271 191.847 124.28 188.836 124.28 185.121C124.28 181.406 121.271 178.394 117.559 178.394C113.848 178.394 110.839 181.406 110.839 185.121C110.839 188.836 113.848 191.847 117.559 191.847Z" fill="#3F3D56"/>
<path d="M117.559 214.437C117.559 214.437 116.599 193.769 96.917 196.172L117.559 214.437Z" fill="#3F3D56"/>
<path d="M212.229 233.021V74.3613" stroke="#3F3D56" stroke-width="2" stroke-miterlimit="10"/>
<path d="M212.229 81.0127C215.941 81.0127 218.95 78.0011 218.95 74.2861C218.95 70.5712 215.941 67.5596 212.229 67.5596C208.518 67.5596 205.509 70.5712 205.509 74.2861C205.509 78.0011 208.518 81.0127 212.229 81.0127Z" fill="#3F3D56"/>
<path d="M191.588 195.804C195.299 195.804 198.308 192.793 198.308 189.078C198.308 185.363 195.299 182.351 191.588 182.351C187.876 182.351 184.867 185.363 184.867 189.078C184.867 192.793 187.876 195.804 191.588 195.804Z" fill="#3F3D56"/>
<path d="M212.23 108.646C212.23 108.646 211.27 87.9785 191.588 90.3808L212.23 108.646Z" fill="#3F3D56"/>
<path d="M212.23 167.237C212.23 167.237 211.27 146.569 191.588 148.971L212.23 167.237Z" fill="#3F3D56"/>
<path d="M212.23 231.172C212.23 231.172 216.55 190.999 191.588 189.077" stroke="#3F3D56" stroke-width="2" stroke-miterlimit="10"/>
<path d="M232.874 195.804C236.586 195.804 239.595 192.793 239.595 189.078C239.595 185.363 236.586 182.351 232.874 182.351C229.162 182.351 226.153 185.363 226.153 189.078C226.153 192.793 229.162 195.804 232.874 195.804Z" fill="#3F3D56"/>
<path d="M212.232 231.172C212.232 231.172 207.912 190.999 232.874 189.077" stroke="#3F3D56" stroke-width="2" stroke-miterlimit="10"/>
<path d="M233.283 132.706C236.995 132.706 240.004 129.695 240.004 125.98C240.004 122.265 236.995 119.253 233.283 119.253C229.571 119.253 226.562 122.265 226.562 125.98C226.562 129.695 229.571 132.706 233.283 132.706Z" fill="#3F3D56"/>
<path d="M212.641 165.931C212.641 165.931 208.321 127.901 233.283 125.979" stroke="#3F3D56" stroke-width="2" stroke-miterlimit="10"/>
<path d="M167.705 232.798V135.95" stroke="#3F3D56" stroke-width="2" stroke-miterlimit="10"/>
<path d="M167.705 142.677C171.417 142.677 174.426 139.665 174.426 135.95C174.426 132.235 171.417 129.224 167.705 129.224C163.993 129.224 160.984 132.235 160.984 135.95C160.984 139.665 163.993 142.677 167.705 142.677Z" fill="#3F3D56"/>
<path d="M167.705 163.345C167.705 163.345 166.745 142.677 147.063 145.079L167.705 163.345Z" fill="#3F3D56"/>
<path d="M167.705 230.948C167.705 230.948 172.026 191.204 147.063 189.282" stroke="#3F3D56" stroke-width="2" stroke-miterlimit="10"/>
<path d="M147.063 196.009C150.775 196.009 153.784 192.997 153.784 189.282C153.784 185.567 150.775 182.556 147.063 182.556C143.352 182.556 140.343 185.567 140.343 189.282C140.343 192.997 143.352 196.009 147.063 196.009Z" fill="#3F3D56"/>
<path d="M93.5625 232.704H232.297" stroke="#3F3D56" stroke-width="2" stroke-miterlimit="10"/>
<path d="M283.034 164.143C290.602 164.143 296.736 158.003 296.736 150.429C296.736 142.854 290.602 136.714 283.034 136.714C275.467 136.714 269.332 142.854 269.332 150.429C269.332 158.003 275.467 164.143 283.034 164.143Z" fill="#F2F2F2"/>
<path d="M67.2256 78.4286C74.793 78.4286 80.9277 72.2885 80.9277 64.7143C80.9277 57.1401 74.793 51 67.2256 51C59.6581 51 53.5234 57.1401 53.5234 64.7143C53.5234 72.2885 59.6581 78.4286 67.2256 78.4286Z" fill="#F2F2F2"/>
<path d="M205.532 27.4286C213.1 27.4286 219.234 21.2885 219.234 13.7143C219.234 6.14009 213.1 0 205.532 0C197.965 0 191.83 6.14009 191.83 13.7143C191.83 21.2885 197.965 27.4286 205.532 27.4286Z" fill="#F2F2F2"/>
</g>
<defs>
<clipPath id="clip0">
<rect width="322" height="279" fill="white"/>
</clipPath>
</defs>
</svg>
